<?xml version="1.0" encoding="UTF-8"?>
<svg width="78.693" height="20.32" version="1.1" viewBox="0 0 20.821 5.3763" xmlns="http://www.w3.org/2000/svg" xmlns:cc="http://creativecommons.org/ns#" xmlns:dc="http://purl.org/dc/elements/1.1/" xmlns:rdf="http://www.w3.org/1999/02/22-rdf-syntax-ns#">
 <metadata>
  <rdf:RDF>
   <cc:Work rdf:about="">
    <dc:format>image/svg+xml</dc:format>
    <dc:type rdf:resource="http://purl.org/dc/dcmitype/StillImage"/>
    <dc:title/>
   </cc:Work>
  </rdf:RDF>
 </metadata>
 <g transform="translate(-69.844 -81.699)">
  <g fill="#222933" stroke-width=".26458" style="font-variant-caps:normal;font-variant-east-asian:normal;font-variant-ligatures:normal;font-variant-numeric:normal" aria-label="about">
   <path d="m71.848 86.144c-0.55034 0-0.94545-0.43039-0.94545-1.016s0.39511-1.016 0.94545-1.016c0.55034 0 0.94545 0.43039 0.94545 1.016s-0.39511 1.016-0.94545 1.016zm0.95251-2.3213c-0.28222-0.40217-0.71262-0.64206-1.2277-0.64206-1.016 0-1.7286 0.80434-1.7286 1.9473s0.71262 1.9473 1.7286 1.9473c0.51506 0 0.94545-0.23989 1.2277-0.64206v0.50095h1.0583v-3.6125h-1.0583z" style="font-variant-caps:normal;font-variant-east-asian:normal;font-variant-ligatures:normal;font-variant-numeric:normal"/>
   <path d="m76.737 84.133c0.55034 0 0.94545 0.42334 0.94545 0.99484 0 0.57856-0.40217 0.99484-0.94545 0.99484-0.55034 0-0.94545-0.42334-0.94545-0.99484s0.39511-0.99484 0.94545-0.99484zm2.0038 0.99484c0-1.143-0.70556-1.9473-1.7145-1.9473-0.49389 0-0.90312 0.21167-1.1924 0.57856v-2.0602h-1.0583v5.2353h1.0442v-0.43745c0.28928 0.35984 0.70556 0.57856 1.2065 0.57856 1.0019 0 1.7145-0.80434 1.7145-1.9473z" style="font-variant-caps:normal;font-variant-east-asian:normal;font-variant-ligatures:normal;font-variant-numeric:normal"/>
   <path d="m81.33 83.181c-1.1853 0-2.0038 0.79023-2.0038 1.9473 0 1.1501 0.81845 1.9473 2.0038 1.9473 1.1924 0 2.0108-0.79728 2.0108-1.9473 0-1.1571-0.81845-1.9473-2.0108-1.9473zm0 2.9634c-0.55034 0-0.9384-0.42334-0.9384-1.016 0-0.59267 0.38806-1.016 0.9384-1.016 0.55739 0 0.94545 0.42334 0.94545 1.016 0 0.59267-0.38806 1.016-0.94545 1.016z" style="font-variant-caps:normal;font-variant-east-asian:normal;font-variant-ligatures:normal;font-variant-numeric:normal"/>
   <path d="m87.561 86.935v-3.6125h-1.0583v2.032c0 0.45861-0.33867 0.79023-0.75495 0.79023-0.41628 0-0.67028-0.31045-0.67028-0.74789v-2.0743h-1.0583v2.2578c0 0.86784 0.55034 1.4958 1.3617 1.4958 0.47272 0 0.89606-0.23989 1.1501-0.635v0.49389z" style="font-variant-caps:normal;font-variant-east-asian:normal;font-variant-ligatures:normal;font-variant-numeric:normal"/>
   <path d="m88.753 85.763c0 0.76906 0.46567 1.3123 1.1853 1.3123 0.22578 0 0.508-0.04233 0.72673-0.11289v-0.85373c-0.11994 0.03528-0.27517 0.05644-0.37395 0.05644-0.29634 0-0.47978-0.20461-0.47978-0.508v-1.5311h0.81845v-0.80433h-0.81845v-0.91017h-0.88901l-0.11994 0.91017h-0.55739v0.80434h0.508z" style="font-variant-caps:normal;font-variant-east-asian:normal;font-variant-ligatures:normal;font-variant-numeric:normal"/>
  </g>
 </g>
</svg>
