<?xml version="1.0" encoding="UTF-8"?>
<svg width="101.23" height="20.507" version="1.1" viewBox="0 0 26.783 5.4257" xmlns="http://www.w3.org/2000/svg" xmlns:cc="http://creativecommons.org/ns#" xmlns:dc="http://purl.org/dc/elements/1.1/" xmlns:rdf="http://www.w3.org/1999/02/22-rdf-syntax-ns#">
 <metadata>
  <rdf:RDF>
   <cc:Work rdf:about="">
    <dc:format>image/svg+xml</dc:format>
    <dc:type rdf:resource="http://purl.org/dc/dcmitype/StillImage"/>
    <dc:title/>
   </cc:Work>
  </rdf:RDF>
 </metadata>
 <g transform="translate(-91.011 -85.43)">
  <g fill="#222933" stroke-width=".26458" style="font-variant-caps:normal;font-variant-east-asian:normal;font-variant-ligatures:normal;font-variant-numeric:normal" aria-label="archive">
   <path d="m93.014 89.924c-0.55033 0-0.94544-0.43039-0.94544-1.016 0-0.58561 0.39511-1.016 0.94544-1.016 0.55033 0 0.94544 0.43039 0.94544 1.016 0 0.58561-0.39511 1.016-0.94544 1.016zm0.9525-2.3213c-0.28222-0.40217-0.71261-0.64206-1.2277-0.64206-1.016 0-1.7286 0.80433-1.7286 1.9473 0 1.143 0.71261 1.9473 1.7286 1.9473 0.51506 0 0.94544-0.23989 1.2277-0.64206v0.50094h1.0583v-3.6124h-1.0583z" style="font-variant-caps:normal;font-variant-east-asian:normal;font-variant-ligatures:normal;font-variant-numeric:normal"/>
   <path d="m95.942 87.102v3.6124h1.0583v-1.9191c0-0.54328 0.30339-0.92428 0.762-0.92428 0.15522 0 0.39511 0.04233 0.59267 0.127v-0.93839c-0.14111-0.05644-0.28928-0.09172-0.43039-0.09172-0.39511 0-0.75494 0.23283-0.96661 0.59267v-0.45861z" style="font-variant-caps:normal;font-variant-east-asian:normal;font-variant-ligatures:normal;font-variant-numeric:normal"/>
   <path d="m100.78 86.961c-1.143 0-1.9685 0.81844-1.9685 1.9473 0 1.1289 0.83256 1.9473 1.9685 1.9473 0.93133 0 1.7216-0.59972 1.8556-1.4323l-0.98778-0.127c-0.0988 0.38806-0.4445 0.67028-0.86078 0.67028-0.52211 0-0.91722-0.4445-0.91722-1.0583 0-0.61383 0.40217-1.0583 0.91722-1.0583 0.40217 0 0.762 0.28222 0.85373 0.67028l0.98778-0.127c-0.11289-0.83256-0.90312-1.4323-1.8486-1.4323z" style="font-variant-caps:normal;font-variant-east-asian:normal;font-variant-ligatures:normal;font-variant-numeric:normal"/>
   <path d="m103.37 85.479v5.2352h1.0583v-2.032c0-0.45861 0.33867-0.79022 0.74789-0.79022 0.42333 0.0071 0.67733 0.31044 0.67733 0.74789v2.0743h1.0583v-2.2931c0-0.85372-0.54328-1.4605-1.3758-1.4605-0.43744 0-0.86783 0.19756-1.1077 0.55033v-2.032z" style="font-variant-caps:normal;font-variant-east-asian:normal;font-variant-ligatures:normal;font-variant-numeric:normal"/>
   <path d="m107.85 87.102v3.6124h1.0583v-3.6124zm0.52917-0.47978c0.35983 0 0.61383-0.24694 0.61383-0.59972 0-0.34572-0.254-0.59267-0.61383-0.59267-0.35984 0-0.61384 0.24694-0.61384 0.59267 0 0.35278 0.254 0.59972 0.61384 0.59972z" style="font-variant-caps:normal;font-variant-east-asian:normal;font-variant-ligatures:normal;font-variant-numeric:normal"/>
   <path d="m112.35 90.714 1.2629-3.6124h-1.1359l-0.88195 2.8081-0.889-2.8081h-1.1289l1.263 3.6124z" style="font-variant-caps:normal;font-variant-east-asian:normal;font-variant-ligatures:normal;font-variant-numeric:normal"/>
   <path d="m114.94 88.569c0.0917-0.47978 0.41628-0.79728 0.88195-0.79728 0.47978 0 0.83255 0.33867 0.89605 0.79728zm-1.0866 0.31044c0 1.1642 0.81844 1.9756 1.9826 1.9756 0.88194 0 1.6439-0.51506 1.8203-1.2206l-0.9525-0.13406c-0.11289 0.3175-0.4445 0.54328-0.83961 0.54328-0.47978 0-0.8255-0.33161-0.91722-0.83961l2.8293 0.0071c0.0141-0.07761 0.0141-0.22578 0.0141-0.3175 0-1.143-0.79022-1.9332-1.9473-1.9332-1.1642 0-1.9897 0.79022-1.9897 1.9191z" style="font-variant-caps:normal;font-variant-east-asian:normal;font-variant-ligatures:normal;font-variant-numeric:normal"/>
  </g>
 </g>
</svg>
