<?xml version="1.0" encoding="UTF-8"?>
<svg width="44.048" height="20.603" version="1.1" viewBox="0 0 11.654 5.4511" xmlns="http://www.w3.org/2000/svg"
    xmlns:cc="http://creativecommons.org/ns#" xmlns:dc="http://purl.org/dc/elements/1.1/"
    xmlns:rdf="http://www.w3.org/1999/02/22-rdf-syntax-ns#">
    <metadata>
        <rdf:RDF>
            <cc:Work rdf:about="">
                <dc:format>image/svg+xml</dc:format>
                <dc:type rdf:resource="http://purl.org/dc/dcmitype/StillImage" />
                <dc:title />
            </cc:Work>
        </rdf:RDF>
    </metadata>
    <g transform="translate(-70.099 -118.53)">
        <g fill="#222933" stroke-width=".26458"
            style="font-variant-caps:normal;font-variant-east-asian:normal;font-variant-ligatures:none;font-variant-numeric:normal;font-variation-settings:'wght' 400"
            aria-label="foo-x">
            <path
                d="m70.415 123.97q-0.04233 0.0282-0.09878-0.0141-0.04939-0.0423-0.14817-0.15523-0.04939-0.0564-0.0635-0.11994-0.01411-0.0635 0.0071-0.23989 0.02822-0.0776 0.02822-0.14817 0.0071-0.0705 0.0071-0.0988 0-0.0423 0.02117-0.19756 0.02822-0.15522 0.05644-0.32456 0.02822-0.17638 0.04939-0.26811 0-7e-3 0.0071-0.0353 0.0071-0.0282 0.01411-0.0494 0.01411-0.0635 0.03528-0.16934 0.02822-0.10583 0.04939-0.26105 0.05644-0.17639 0.09172-0.34573 0.04233-0.17638 0.04233-0.23988 0-0.127 0.09878-0.18345 0.0071-0.0353 0.04233-0.10583 0.03528-0.0776 0.0635-0.127 0.14111-0.40217 0.23283-0.635 0.09172-0.23989 0.1905-0.41628 0.04233-0.11995 0.09172-0.24695 0.05644-0.127 0.11289-0.19755 0.03528-0.0917 0.16228-0.23283 0.127-0.14817 0.26811-0.28223 0.14111-0.14111 0.22578-0.21166 0.15522-0.0776 0.24694-0.10584 0.09172-0.0282 0.23989-0.0282 0.13406 0 0.17639 0.0353 0.04939 0.0282 0.14111 0.11289 0.09878 0.10583 0.11289 0.14111 0.01411 0.0353 0.01411 0.13405-0.01411 0.0917-0.07761 0.23989-0.05644 0.14111-0.127 0.26106-0.0635 0.11289-0.10583 0.11994-0.08467 0.0282-0.127-0.0141-0.03528-0.0494-0.03528-0.15522 0-0.0494-0.02822-0.0917-0.02117-0.0494-0.02117-0.0494 0-0.0212 0.0071-0.0706 0.01411-0.0564 0.04233-0.10583 0.03528-0.0706 0.01411-0.10583-0.01411-0.0353-0.09172-0.0141-0.02117 0.0141-0.11289 0.0847-0.09172 0.0706-0.19756 0.16228-0.09878 0.0847-0.17639 0.16228-0.07761 0.0776-0.07761 0.0988 0 0-0.02822 0.0635-0.02822 0.0564-0.10583 0.14816-0.04939 0.0706-0.09172 0.14111-0.03528 0.0635-0.03528 0.0776 0 0.0282-0.0071 0.0635 0 0.0282-0.03528 0.0282 0 0-0.02117 0.0635t-0.07761 0.16227q-0.02822 0.0706-0.07055 0.14817-0.04233 0.0706-0.07056 0.0988h0.0071t-0.03528 0.0917q-0.02822 0.0847-0.0635 0.18345-0.03528 0.0917-0.03528 0.10583 0 0.0282 0.09878 0.0282 0.10583 0 0.24694-0.0212 0.14111-0.0282 0.254-0.0564 0.09878-0.0282 0.13406-0.0282 0.03528 0 0.14111 0.0282 0.05644 0.0353 0.09172 0.10583 0.04233 0.0635 0.05644 0.127 0.02117 0.0564 0 0.0847-0.0071 0.0282-0.15522 0.0776-0.14817 0.0494-0.29633 0.0776-0.127 0.0282-0.31044 0.0635-0.18344 0.0353-0.32456 0.0635-0.13406 0.0282-0.13406 0.0494-0.02822 0-0.04939 0.0353-0.02117 0.0282-0.02117 0.0494 0 0.0988-0.02822 0.14817-0.01411 0.0423-0.04939 0.16933-0.03528 0.127-0.07761 0.28222-0.03528 0.15522-0.0635 0.28222-0.02117 0.127-0.02117 0.16934-0.04233 0.0494-0.04939 0.127-0.0071 0.0706-0.0071 0.127-0.02822 0.0564-0.03528 0.10583-0.0071 0.0423-0.0071 0.0706 0 7e-3 0 0.0282t-0.0071 0.0423q-0.0071 0.0706-0.02117 0.18345-0.0071 0.11994-0.0071 0.23283l-0.02117 0.20461q-0.0071 0.0917-0.02117 0.15522-0.01411 0.0706-0.04939 0.10584z"
                style="font-variant-caps:normal;font-variant-east-asian:normal;font-variant-ligatures:none;font-variant-numeric:normal;font-variation-settings:'wght' 400" />
            <path
                d="m72.793 123.11q-0.09172 0-0.14817-0.0353-0.04939-0.0353-0.127-0.0988-0.13406-0.14111-0.1905-0.26811-0.05644-0.13406-0.03528-0.254 0.02117-0.0564 0.01411-0.10584 0-0.0564 0-0.0564-0.03528-0.0353-0.02117-0.0423 0.01411-0.0141 0.02822-0.0423 0.04233 0 0.02822-0.0776-0.01411-0.0564 0.05644-0.24694 0.07056-0.1905 0.17639-0.35984 0.04233-0.0705 0.127-0.18344 0.08467-0.11995 0.18344-0.23283 0.10583-0.11995 0.1905-0.1905 0.17639-0.14817 0.31044-0.21873 0.13406-0.0706 0.28928-0.10583 0.15522-0.0353 0.21167-0.0353 0.0635 0 0.16933 0.11289 0.16228 0.0706 0.23283 0.16933 0.07761 0.0988 0.09878 0.28928 0.02117 0.21167-0.03528 0.48684-0.04939 0.26811-0.33161 0.67027-0.17639 0.254-0.32456 0.381-0.14817 0.11995-0.35278 0.23989-0.14817 0.0988-0.26811 0.14817-0.11994 0.0423-0.28222 0.0564zm0.67733-0.74789q0.16933-0.1905 0.26811-0.35983 0.10583-0.16933 0.19756-0.43039 0.02822-0.0776 0.03528-0.1905 0.0071-0.11994-0.0071-0.21872-0.0071-0.10583-0.04939-0.11994-0.08467-0.0494-0.20461-0.0282-0.11994 0.0141-0.26106 0.13406-0.21872 0.18344-0.381 0.45861-0.16228 0.26811-0.3175 0.61383-0.10583 0.254-0.04939 0.40923 0.0635 0.14816 0.26106 0.10583 0.20461-0.0494 0.508-0.37395z"
                style="font-variant-caps:normal;font-variant-east-asian:normal;font-variant-ligatures:none;font-variant-numeric:normal;font-variation-settings:'wght' 400" />
            <path
                d="m75.284 123.11q-0.09172 0-0.14817-0.0353-0.04939-0.0353-0.127-0.0988-0.13406-0.14111-0.1905-0.26811-0.05644-0.13406-0.03528-0.254 0.02117-0.0564 0.01411-0.10584 0-0.0564 0-0.0564-0.03528-0.0353-0.02117-0.0423 0.01411-0.0141 0.02822-0.0423 0.04233 0 0.02822-0.0776-0.01411-0.0564 0.05644-0.24694 0.07055-0.1905 0.17639-0.35984 0.04233-0.0705 0.127-0.18344 0.08467-0.11995 0.18344-0.23283 0.10583-0.11995 0.1905-0.1905 0.17639-0.14817 0.31044-0.21873 0.13406-0.0706 0.28928-0.10583 0.15522-0.0353 0.21167-0.0353 0.0635 0 0.16933 0.11289 0.16228 0.0706 0.23283 0.16933 0.07761 0.0988 0.09878 0.28928 0.02117 0.21167-0.03528 0.48684-0.04939 0.26811-0.33161 0.67027-0.17639 0.254-0.32456 0.381-0.14817 0.11995-0.35278 0.23989-0.14817 0.0988-0.26811 0.14817-0.11994 0.0423-0.28222 0.0564zm0.67733-0.74789q0.16933-0.1905 0.26811-0.35983 0.10583-0.16933 0.19756-0.43039 0.02822-0.0776 0.03528-0.1905 0.0071-0.11994-0.0071-0.21872-0.0071-0.10583-0.04939-0.11994-0.08467-0.0494-0.20461-0.0282-0.11994 0.0141-0.26106 0.13406-0.21872 0.18344-0.381 0.45861-0.16228 0.26811-0.3175 0.61383-0.10583 0.254-0.04939 0.40923 0.0635 0.14816 0.26106 0.10583 0.20461-0.0494 0.508-0.37395z"
                style="font-variant-caps:normal;font-variant-east-asian:normal;font-variant-ligatures:none;font-variant-numeric:normal;font-variation-settings:'wght' 400" />
            <path
                d="m77.838 121.96q-0.04233 0-0.10583 0-0.0635-7e-3 -0.14111-0.0353-0.10583 0-0.14111-0.0212-0.03528-0.0282-0.0635-0.0776-0.07761-0.10583-0.01411-0.14111 0.0635-0.0423 0.32456-0.0705 0.23989-0.0564 0.4445-0.0776t0.48683-0.0212q0.18344 0 0.24694 0.0141t0.14111 0.0917q0.10583 0.10583 0.07761 0.20461-0.02822 0.0917-0.1905 0.0635-0.04939 7e-3 -0.18344 0.0141-0.13406 7e-3 -0.26106 0.0212-0.07761 7e-3 -0.24694 0.0212-0.16933 0.0141-0.37394 0.0141z"
                style="font-variant-caps:normal;font-variant-east-asian:normal;font-variant-ligatures:none;font-variant-numeric:normal;font-variation-settings:'wght' 400" />
            <path
                d="m81.641 123.2q-0.02822 0-0.07761-7e-3 -0.04233-7e-3 -0.07056-0.0353-0.02822 0-0.09878-0.0212-0.07055-0.0212-0.127-0.0494-0.07056-0.0282-0.1905-0.11289-0.11994-0.0917-0.23989-0.19755-0.11994-0.10584-0.20461-0.19756-0.07761-0.0917-0.07761-0.13405 0-0.0353-0.03528-0.0353 0 0-0.02117-0.0212-0.02117-0.0282-0.02117-0.0564 0-0.0706-0.07055-0.0706 0 0-0.11994 0.0988-0.11994 0.0988-0.26106 0.23989-0.19756 0.19755-0.29633 0.28928-0.09172 0.0847-0.14817 0.0847-0.05644 0-0.127-0.0423t-0.127-0.0988q-0.04939-0.0635-0.04939-0.11994 0 0 0.14111-0.16228 0.14817-0.16228 0.34572-0.33161l0.45156-0.4445-0.07761-0.26811q-0.04939-0.11289-0.10583-0.23284-0.04939-0.127-0.07761-0.21166-0.08467-0.11995-0.09172-0.14817 0-0.0353 0.05644-0.11994 0.05644-0.0564 0.09172-0.0706 0.04233-0.0212 0.127 0.0353 0.04233 0 0.11289 0.11994 0.07056 0.11289 0.127 0.254 0.0635 0.13406 0.0635 0.1905 0 0.11289 0.08467 0.0917 0.08467-0.0212 0.254-0.13405 0.08467-0.0776 0.13406-0.127 0.04939-0.0564 0.04939-0.0564 0.02117-0.0212 0.127-0.0917 0.10583-0.0776 0.21872-0.15522 0.11289-0.0776 0.14817-0.0917 0.05644-0.0423 0.127 0 0.07056 0.0353 0.11994 0.11289 0.04939 0.0705 0.04939 0.14816 0 0.0847-0.04233 0.13406-0.04233 0.0494-0.18344 0.127-0.127 0.0917-0.22578 0.16228-0.09172 0.0705-0.19756 0.15522-0.09878 0.0776-0.254 0.21167l-0.18344 0.14816 0.11289 0.1905q0.02822 0.0494 0.07761 0.14111 0.05644 0.0917 0.10583 0.11995 0.04233 0.0564 0.16228 0.15522 0.11994 0.0988 0.23283 0.18345 0.11994 0.0776 0.13406 0.0776 0.02822 0 0.0635 0.0212t0.08467 0.0494q0.05644 0.0564 0.07055 0.127 0.02117 0.0706 0 0.127-0.01411 0.0494-0.07055 0.0494z"
                style="font-variant-caps:normal;font-variant-east-asian:normal;font-variant-ligatures:none;font-variant-numeric:normal;font-variation-settings:'wght' 400" />
        </g>
    </g>
</svg>
