<?xml version="1.0" encoding="UTF-8"?>
<svg width="187.1" height="62.402" version="1.1" viewBox="0 0 49.504 16.511" xmlns="http://www.w3.org/2000/svg" xmlns:cc="http://creativecommons.org/ns#" xmlns:dc="http://purl.org/dc/elements/1.1/" xmlns:rdf="http://www.w3.org/1999/02/22-rdf-syntax-ns#">
 <metadata>
  <rdf:RDF>
   <cc:Work rdf:about="">
    <dc:format>image/svg+xml</dc:format>
    <dc:type rdf:resource="http://purl.org/dc/dcmitype/StillImage"/>
    <dc:title/>
   </cc:Work>
  </rdf:RDF>
 </metadata>
 <g transform="translate(-55.667 -96.456)">
  <g transform="translate(-36.606 20.274)">
   <g fill="#222933" stroke-width=".26458" style="font-variant-caps:normal;font-variant-east-asian:normal;font-variant-ligatures:normal;font-variant-numeric:normal" aria-label="foo-x">
    <path d="m113.47 83.283c0-0.41769 0.29351-0.7112 0.73378-0.7112 0.19191 0 0.38382 0.03387 0.56445 0.07902v-1.3885c-0.33867-0.11289-0.73378-0.18062-1.1289-0.18062-1.1176 0-1.8627 0.83538-1.8627 2.0997v0.72249h-0.8128v1.2869h0.8128v4.493h1.6933v-4.493h1.2982v-1.2869h-1.2982z" style="font-variant-caps:normal;font-variant-east-asian:normal;font-variant-ligatures:normal;font-variant-numeric:normal"/>
    <path d="m118.57 83.678c-1.8965 0-3.206 1.2644-3.206 3.1157 0 1.8401 1.3095 3.1157 3.206 3.1157 1.9078 0 3.2173-1.2756 3.2173-3.1157 0-1.8514-1.3095-3.1157-3.2173-3.1157zm0 4.7413c-0.88053 0-1.5014-0.67733-1.5014-1.6256 0-0.94827 0.62089-1.6256 1.5014-1.6256 0.89183 0 1.5127 0.67733 1.5127 1.6256 0 0.94827-0.62089 1.6256-1.5127 1.6256z" style="font-variant-caps:normal;font-variant-east-asian:normal;font-variant-ligatures:normal;font-variant-numeric:normal"/>
    <path d="m125.92 83.678c-1.8965 0-3.206 1.2644-3.206 3.1157 0 1.8401 1.3095 3.1157 3.206 3.1157 1.9078 0 3.2173-1.2756 3.2173-3.1157 0-1.8514-1.3095-3.1157-3.2173-3.1157zm0 4.7413c-0.88054 0-1.5014-0.67733-1.5014-1.6256 0-0.94827 0.62089-1.6256 1.5014-1.6256 0.89182 0 1.5127 0.67733 1.5127 1.6256 0 0.94827-0.62089 1.6256-1.5127 1.6256z" style="font-variant-caps:normal;font-variant-east-asian:normal;font-variant-ligatures:normal;font-variant-numeric:normal"/>
    <path d="m130.07 85.485v1.3885h4.6284v-1.3885z" style="font-variant-caps:normal;font-variant-east-asian:normal;font-variant-ligatures:normal;font-variant-numeric:normal"/>
    <path d="m137.32 89.684 1.1966-2.0207 1.1966 2.0207h2.0659l-1.9868-3.0028 1.8852-2.7771h-2.0094l-1.1515 1.8401-1.1515-1.8401h-2.0094l1.8852 2.7771-1.9756 3.0028z" style="font-variant-caps:normal;font-variant-east-asian:normal;font-variant-ligatures:normal;font-variant-numeric:normal"/>
   </g>
   <g transform="matrix(.039688 0 0 .039688 116.41 60.52)">
    <g transform="matrix(1.3185 -.53269 .53269 1.3185 -731.57 461.21)" stroke="#222933" stroke-width="30">
     <path d="m60 270c40 0 90-60 120-90"/>
     <path d="m300 90c-40 0-90 60-120 90"/>
     <path d="m140 140 80 80"/>
     <circle cx="60" cy="230" r="40" fill-opacity="0"/>
     <circle cx="300" cy="130" r="40" fill-opacity="0"/>
    </g>
   </g>
  </g>
 </g>
</svg>
