<?xml version="1.0" encoding="UTF-8"?>
<svg width="92.639" height="22.663" version="1.1" viewBox="0 0 92.639 22.663" xmlns="http://www.w3.org/2000/svg"
    xmlns:cc="http://creativecommons.org/ns#" xmlns:dc="http://purl.org/dc/elements/1.1/"
    xmlns:rdf="http://www.w3.org/1999/02/22-rdf-syntax-ns#">
    <metadata>
        <rdf:RDF>
            <cc:Work rdf:about="">
                <dc:format>image/svg+xml</dc:format>
                <dc:type rdf:resource="http://purl.org/dc/dcmitype/StillImage" />
                <dc:title />
            </cc:Work>
        </rdf:RDF>
    </metadata>
    <g transform="translate(-2.6627 -13.358)">
        <g fill="#222933"
            style="font-variant-caps:normal;font-variant-east-asian:normal;font-variant-ligatures:normal;font-variant-numeric:normal;font-variation-settings:'wght' 400"
            aria-label="foo-x.com">
            <path
                d="m3.9768 35.974q-0.176 0.11733-0.41067-0.05867-0.20533-0.176-0.616-0.64533-0.20533-0.23467-0.264-0.49867-0.058667-0.264 0.029333-0.99733 0.11733-0.32267 0.11733-0.616 0.029333-0.29333 0.029333-0.41067 0-0.176 0.088-0.82133 0.11733-0.64533 0.23467-1.3493 0.11733-0.73333 0.20533-1.1147 0-0.02933 0.029333-0.14667 0.029333-0.11733 0.058667-0.20533 0.058667-0.264 0.14667-0.704 0.11733-0.44 0.20533-1.0853 0.23467-0.73333 0.38133-1.4373 0.176-0.73333 0.176-0.99733 0-0.528 0.41067-0.76267 0.029333-0.14667 0.176-0.44 0.14667-0.32267 0.264-0.528 0.58667-1.672 0.968-2.64 0.38133-0.99733 0.792-1.7307 0.176-0.49867 0.38133-1.0267 0.23467-0.528 0.46933-0.82133 0.14667-0.38133 0.67467-0.968 0.528-0.616 1.1147-1.1733 0.58667-0.58667 0.93867-0.88 0.64533-0.32267 1.0267-0.44 0.38133-0.11733 0.99733-0.11733 0.55733 0 0.73333 0.14667 0.20533 0.11733 0.58667 0.46933 0.41067 0.44 0.46933 0.58667 0.05867 0.14667 0.05867 0.55733-0.05867 0.38133-0.32267 0.99733-0.23467 0.58667-0.528 1.0853-0.264 0.46933-0.44 0.49867-0.352 0.11733-0.528-0.05867-0.14667-0.20533-0.14667-0.64533 0-0.20533-0.11733-0.38133-0.088-0.20533-0.088-0.20533 0-0.088 0.02933-0.29333 0.05867-0.23467 0.176-0.44 0.14667-0.29333 0.05867-0.44-0.05867-0.14667-0.38133-0.05867-0.088 0.05867-0.46933 0.352-0.38133 0.29333-0.82133 0.67466-0.41067 0.352-0.73333 0.67467-0.32267 0.32267-0.32267 0.41067 0 0-0.11733 0.264-0.11733 0.23467-0.44 0.616-0.20533 0.29333-0.38133 0.58667-0.14667 0.264-0.14667 0.32267 0 0.11733-0.029333 0.264 0 0.11733-0.14667 0.11733 0 0-0.088 0.264-0.088 0.264-0.32267 0.67467-0.11733 0.29333-0.29333 0.616-0.176 0.29333-0.29333 0.41067h0.029333t-0.14667 0.38133q-0.11733 0.352-0.264 0.76266-0.14667 0.38133-0.14667 0.44 0 0.11733 0.41067 0.11733 0.44 0 1.0267-0.088 0.58667-0.11733 1.056-0.23467 0.41067-0.11733 0.55733-0.11733 0.14667 0 0.58667 0.11733 0.23467 0.14667 0.38133 0.44 0.176 0.264 0.23467 0.528 0.088 0.23467 0 0.352-0.02933 0.11733-0.64533 0.32267-0.616 0.20533-1.232 0.32267-0.528 0.11733-1.2907 0.264-0.76267 0.14667-1.3493 0.264-0.55733 0.11733-0.55733 0.20533-0.11733 0-0.20533 0.14667-0.088 0.11733-0.088 0.20533 0 0.41067-0.11733 0.616-0.058667 0.176-0.20533 0.704-0.14667 0.528-0.32267 1.1733-0.14667 0.64533-0.264 1.1733-0.088 0.528-0.088 0.704-0.176 0.20533-0.20533 0.528-0.029333 0.29333-0.029333 0.528-0.11733 0.23467-0.14667 0.44-0.029333 0.176-0.029333 0.29333 0 0.02933 0 0.11733 0 0.088-0.029333 0.176-0.029333 0.29333-0.088 0.76267-0.029333 0.49867-0.029333 0.968l-0.088 0.85066q-0.029333 0.38133-0.088 0.64533-0.058667 0.29333-0.20533 0.44z"
                style="font-variant-caps:normal;font-variant-east-asian:normal;font-variant-ligatures:normal;font-variant-numeric:normal;font-variation-settings:'wght' 400" />
            <path
                d="m13.862 32.425q-0.38133 0-0.616-0.14667-0.20533-0.14667-0.528-0.41067-0.55733-0.58667-0.792-1.1147-0.23467-0.55733-0.14667-1.056 0.088-0.23467 0.05867-0.44 0-0.23467 0-0.23467-0.14667-0.14667-0.088-0.176 0.05867-0.05867 0.11733-0.176 0.176 0 0.11733-0.32267-0.05867-0.23467 0.23467-1.0267 0.29333-0.792 0.73333-1.496 0.176-0.29333 0.528-0.76267 0.352-0.49867 0.76267-0.968 0.44-0.49867 0.792-0.792 0.73333-0.616 1.2907-0.90933t1.2027-0.44q0.64533-0.14667 0.88-0.14667 0.264 0 0.704 0.46933 0.67467 0.29333 0.968 0.704 0.32267 0.41067 0.41067 1.2027 0.088 0.88-0.14667 2.024-0.20533 1.1147-1.3787 2.7867-0.73333 1.056-1.3493 1.584-0.616 0.49867-1.4667 0.99733-0.616 0.41067-1.1147 0.616-0.49867 0.176-1.1733 0.23467zm2.816-3.1093q0.704-0.792 1.1147-1.496 0.44-0.704 0.82133-1.7893 0.11733-0.32267 0.14667-0.792 0.02933-0.49867-0.02933-0.90933-0.02933-0.44-0.20533-0.49867-0.352-0.20533-0.85066-0.11733-0.49867 0.05867-1.0853 0.55733-0.90933 0.76267-1.584 1.9067-0.67466 1.1147-1.32 2.552-0.44 1.056-0.20533 1.7013 0.264 0.616 1.0853 0.44 0.85067-0.20533 2.112-1.5547z"
                style="font-variant-caps:normal;font-variant-east-asian:normal;font-variant-ligatures:normal;font-variant-numeric:normal;font-variation-settings:'wght' 400" />
            <path
                d="m25.273 31.75q-0.616 0.11733-0.792 0.088-0.14667-0.05867-0.46933-0.352-0.46933-0.23467-0.792-0.58667-0.29333-0.352-0.44-0.73333-0.11733-0.41067-0.088-0.67467 0.088-1.0267 0.49867-2.2 0.41067-1.1733 0.99733-2.2587t1.2613-1.848q0.704-0.792 1.3493-1.0267 0.58667-0.23467 1.1147-0.176 0.528 0.05867 0.76266 0.55733 0.44 0.85067-0.20533 1.0853-0.088 0-0.20533 0.088-0.11733 0.05867-0.11733 0.176 0.11733 0.05867 0.64533 0.02933 0.528-0.05867 1.056-0.176 0.55733-0.14667 0.73333-0.29333 0.176-0.088 0.264-0.088t0.44 0.05867q0.49867 0.14667 0.49867 0.352 0 0.11733 0.088 0.23467 0.088 0.088 0.20533 0.088 0.20533 0.02933-0.05867 0.264-0.23467 0.23467-0.82133 0.64533-0.55733 0.352-0.704 0.46933-0.11733 0.088-0.02933 0.41067 0.23467 0.55733 0.02933 1.2907-0.20533 0.73333-0.73333 1.496-0.528 0.76267-1.2907 1.4373-0.73333 0.64533-1.584 1.1147-0.82133 0.44-1.6133 0.528zm-0.49867-1.2907q0.11733 0 0.41067-0.11733 0.29333-0.14667 0.46933-0.23467 0.11733-0.11733 0.29333-0.264 0.20533-0.176 0.32267-0.20533 0.11733 0 0.29333-0.088 0.176-0.11733 0.49867-0.44 0.32267-0.352 0.85067-1.0267 0.58667-0.64533 0.90933-1.1733 0.32267-0.55733 0.176-1.0267-0.02933-0.11733-0.176-0.14667-0.11733-0.02933-0.32267-0.14667-0.29333 0-0.55733-0.14667-0.23467-0.176-0.55733-0.44l-0.46933-0.58667-0.49867 0.49867q-0.46933 0.46933-0.99733 1.408-0.49867 0.90933-0.85067 1.8773-0.352 0.93867-0.41067 1.496-0.02933 0.44 0.14667 0.58667 0.176 0.14667 0.46933 0.176z"
                style="font-variant-caps:normal;font-variant-east-asian:normal;font-variant-ligatures:normal;font-variant-numeric:normal;font-variation-settings:'wght' 400" />
            <path
                d="m34.835 27.643q-0.176 0-0.44 0-0.264-0.02933-0.58667-0.14667-0.44 0-0.58667-0.088-0.14667-0.11733-0.264-0.32267-0.32267-0.44-0.05867-0.58667 0.264-0.176 1.3493-0.29333 0.99733-0.23467 1.848-0.32267 0.85067-0.088 2.024-0.088 0.76267 0 1.0267 0.05867 0.264 0.05867 0.58667 0.38133 0.44 0.44 0.32267 0.85067-0.11733 0.38133-0.792 0.264-0.20533 0.02933-0.76267 0.05867-0.55733 0.02933-1.0853 0.088-0.32267 0.02933-1.0267 0.088-0.704 0.05867-1.5547 0.05867z"
                style="font-variant-caps:normal;font-variant-east-asian:normal;font-variant-ligatures:normal;font-variant-numeric:normal;font-variation-settings:'wght' 400" />
            <path
                d="m50.646 32.777q-0.11733 0-0.32267-0.02933-0.176-0.02933-0.29333-0.14667-0.11733 0-0.41067-0.088t-0.528-0.20533q-0.29333-0.11733-0.792-0.46933-0.49867-0.38133-0.99733-0.82133-0.49867-0.44-0.85066-0.82133-0.32267-0.38133-0.32267-0.55733 0-0.14667-0.14667-0.14667 0 0-0.088-0.088-0.088-0.11733-0.088-0.23467 0-0.29333-0.29333-0.29333 0 0-0.49867 0.41067t-1.0853 0.99733q-0.82133 0.82133-1.232 1.2027-0.38133 0.352-0.616 0.352t-0.528-0.176q-0.29333-0.176-0.528-0.41067-0.20533-0.264-0.20533-0.49867 0 0 0.58667-0.67467 0.616-0.67467 1.4373-1.3787l1.8773-1.848-0.32267-1.1147q-0.20533-0.46933-0.44-0.968-0.20533-0.528-0.32267-0.88-0.352-0.49867-0.38133-0.616 0-0.14667 0.23467-0.49867 0.23467-0.23467 0.38133-0.29333 0.176-0.088 0.528 0.14667 0.176 0 0.46933 0.49867 0.29333 0.46933 0.528 1.056 0.264 0.55733 0.264 0.792 0 0.46933 0.352 0.38133t1.056-0.55733q0.352-0.32267 0.55733-0.528 0.20533-0.23467 0.20533-0.23467 0.088-0.088 0.528-0.38133 0.44-0.32267 0.90933-0.64533 0.46933-0.32267 0.616-0.38133 0.23467-0.176 0.528 0 0.29333 0.14667 0.49867 0.46933 0.20533 0.29333 0.20533 0.616 0 0.352-0.176 0.55733-0.176 0.20533-0.76266 0.528-0.528 0.38133-0.93867 0.67467-0.38133 0.29333-0.82133 0.64533-0.41067 0.32267-1.056 0.88l-0.76267 0.616 0.46933 0.792q0.11733 0.20533 0.32267 0.58667 0.23467 0.38133 0.44 0.49867 0.176 0.23467 0.67467 0.64533 0.49867 0.41067 0.968 0.76267 0.49867 0.32267 0.55733 0.32267 0.11733 0 0.264 0.088 0.14667 0.088 0.352 0.20533 0.23467 0.23467 0.29333 0.528 0.088 0.29333 0 0.528-0.05867 0.20533-0.29333 0.20533z"
                style="font-variant-caps:normal;font-variant-east-asian:normal;font-variant-ligatures:normal;font-variant-numeric:normal;font-variation-settings:'wght' 400" />
            <path
                d="m53.726 31.339q-0.55733 0.20533-0.93866 0.20533-0.352-0.02933-0.792-0.352-0.55733-0.528-0.38133-1.056 0.20533-0.55733 0.968-1.0853 0.528-0.32267 0.76267-0.352 0.264-0.02933 0.792 0.20533 0.88 0.55733 0.76266 1.232-0.088 0.67467-1.1733 1.2027z"
                style="font-variant-caps:normal;font-variant-east-asian:normal;font-variant-ligatures:normal;font-variant-numeric:normal;font-variation-settings:'wght' 400" />
            <path
                d="m61.177 32.542q-0.85066 0.14667-1.5547-0.088-0.704-0.264-1.144-0.85066-0.41067-0.616-0.41067-1.5547-0.088-0.88 0.20533-2.024 0.29333-1.1733 0.85066-2.3467 0.58667-1.1733 1.2613-2.024 0.58667-0.704 1.1733-1.2907t1.056-0.792q0.41067-0.176 0.76267-0.20533 0.38133-0.05867 0.616-0.05867 0.46933 0.11733 0.99733 0.44 0.55733 0.29333 0.55733 0.64533 0 0 0.05867 0.088 0.088 0.05867 0.088 0.05867 0.176 0 0.29333 0.38133 0.14667 0.38133 0.176 0.88 0.02933 0.46933-0.14667 0.792-0.11733 0.55733-0.41067 0.968t-0.528 0.41067q-0.11733 0-0.23467 0.02933-0.088 0-0.088 0.14667 0 0.14667-0.176 0.11733-0.14667-0.02933-0.32267-0.176-0.176-0.176-0.264-0.41067 0-0.14667 0.11733-0.49867 0.11733-0.352 0.23467-0.90933 0.176-0.82133-0.02933-1.056-0.20533-0.264-0.792-0.02933-0.73333 0.41067-1.408 1.144-0.64533 0.73333-1.2027 1.9067-0.55733 1.144-0.99733 2.8747-0.176 0.67467-0.14667 1.1733 0.05867 0.49867 0.14667 0.528 0.41067 0.11733 1.1147 0.05867 0.704-0.088 1.0267-0.264 0.46933-0.23467 1.056-0.616 0.58667-0.41067 1.0267-0.73333 0.14667-0.088 0.352-0.29333t0.44-0.32267q0.23467-0.352 0.41067-0.41067 0.176-0.05867 0.528-0.05867 0.23467 0.05867 0.44 0.176 0.20533 0.11733 0.264 0.23467 0.088 0.11733-0.088 0.20533-0.11733 0-0.14667 0.088 0 0.05867 0 0.05867 0.05867 0.11733-0.264 0.49867-0.29333 0.352-0.76267 0.792-0.46933 0.44-0.90933 0.76266-0.41067 0.29333-0.58667 0.29333-0.29333 0-0.29333 0.176 0 0.05867-0.44 0.29333-0.41067 0.23467-0.968 0.46933-0.528 0.23467-0.93867 0.32267z"
                style="font-variant-caps:normal;font-variant-east-asian:normal;font-variant-ligatures:normal;font-variant-numeric:normal;font-variation-settings:'wght' 400" />
            <path
                d="m70.417 32.425q-0.38133 0-0.616-0.14667-0.20533-0.14667-0.528-0.41067-0.55733-0.58667-0.792-1.1147-0.23467-0.55733-0.14667-1.056 0.088-0.23467 0.05867-0.44 0-0.23467 0-0.23467-0.14667-0.14667-0.088-0.176 0.05867-0.05867 0.11733-0.176 0.176 0 0.11733-0.32267-0.05867-0.23467 0.23467-1.0267 0.29333-0.792 0.73333-1.496 0.176-0.29333 0.528-0.76267 0.352-0.49867 0.76266-0.968 0.44-0.49867 0.792-0.792 0.73333-0.616 1.2907-0.90933 0.55733-0.29333 1.2027-0.44 0.64533-0.14667 0.88-0.14667 0.264 0 0.704 0.46933 0.67467 0.29333 0.968 0.704 0.32267 0.41067 0.41067 1.2027 0.088 0.88-0.14667 2.024-0.20533 1.1147-1.3787 2.7867-0.73333 1.056-1.3493 1.584-0.616 0.49867-1.4667 0.99733-0.616 0.41067-1.1147 0.616-0.49867 0.176-1.1733 0.23467zm2.816-3.1093q0.704-0.792 1.1147-1.496 0.44-0.704 0.82133-1.7893 0.11733-0.32267 0.14667-0.792 0.02933-0.49867-0.02933-0.90933-0.02933-0.44-0.20533-0.49867-0.352-0.20533-0.85067-0.11733-0.49867 0.05867-1.0853 0.55733-0.90933 0.76267-1.584 1.9067-0.67467 1.1147-1.32 2.552-0.44 1.056-0.20533 1.7013 0.264 0.616 1.0853 0.44 0.85066-0.20533 2.112-1.5547z"
                style="font-variant-caps:normal;font-variant-east-asian:normal;font-variant-ligatures:normal;font-variant-numeric:normal;font-variation-settings:'wght' 400" />
            <path
                d="m79.568 31.779q-0.088-0.11733-0.176-0.29333-0.05867-0.176-0.05867-0.29333 0-0.05867-0.02933-0.14667 0-0.088-0.11733-0.088-0.088-0.088 0.11733-0.67467 0.23467-0.616 0.58667-1.408 0.38133-0.792 0.76267-1.5253 0.41067-0.76266 0.67467-1.2027 0.14667-0.088 0.176-0.23467 0.05867-0.176 0-0.176 0 0 0.14667-0.264 0.176-0.29333 0.264-0.38133 0.23467-0.41067 0.352-0.82133 0.11733-0.44 0.05867-0.73333-0.11733-0.14667-0.264-0.088-0.14667 0.05867-0.14667 0.05867-0.11733 0.02933-0.352 0.11733-0.20533 0.05867-0.38133 0.176-0.67467 0.46933-0.90933 0.44-0.23467-0.05867-0.528-0.76267-0.11733-0.32267-0.088-0.46933 0.02933-0.14667 0.23467-0.32267 0.23467-0.20533 0.44-0.264 0.20533-0.088 0.32267-0.176 0.32267-0.20533 0.528-0.29333 0.23467-0.088 0.352-0.11733 0.76267-0.23467 1.2907-0.088 0.528 0.14667 0.792 0.76267 0.41067 0.49867 0.41067 1.144 0 0.616-0.41067 1.4373l-0.29333 0.44q-0.14667 0.29333-0.05867 0.29333 0.11733 0 0.264-0.20533 0.088-0.11733 0.352-0.352t0.352-0.23467q0 0 0.05867-0.02933 0.088-0.02933 0.088-0.23467 0.088-0.088 0.176-0.176 0.11733-0.088 0.11733-0.088 0.11733 0 0.44-0.264 0.352-0.29333 0.82133-0.67467 0.32267-0.23467 0.58667-0.23467 0.67467-0.20533 1.0853 0.44 0.44 0.64533 0.44 1.672l-0.616 1.584 1.056-1.2907q0.176-0.23467 0.352-0.41067 0.20533-0.176 0.352-0.29333 0.05867-0.20533 0.176-0.23467 0.11733-0.02933 0.11733-0.02933t0.05867 0q0.05867-0.02933 0.05867-0.11733 0.14667-0.11733 0.32267-0.20533 0.176-0.11733 0.23467-0.23467 0.49867-0.20533 0.90933-0.05867 0.41067 0.11733 0.704 0.73333 0.20533 0.352 0.23467 0.616 0.02933 0.264 0.02933 0.792-0.05867 0.44-0.11733 0.704-0.02933 0.23467-0.05867 0.49867-0.02933 0.264-0.088 0.73333-0.11733 0.23467-0.14667 0.49867 0 0.264 0 0.49867 0 0.38133 0.02933 0.528 0.02933 0.11733 0.23467 0.11733 0.41067-0.088 1.1147-0.41067 0.73333-0.352 1.0853-0.67467 0.44-0.41067 0.76267-0.41067 0.352-0.02933 0.44 0.32267 0.05867 0.11733-0.20533 0.528-0.23467 0.41067-0.55733 0.792-0.29333 0.38133-0.44 0.38133-0.088 0-0.20533 0.176-0.11733 0.14667-0.264 0.23467-0.20533 0.20533-0.41067 0.38133-0.176 0.176-0.41067 0.176-0.11733 0-0.29333 0.088-0.14667 0.05867-0.352 0.05867-0.29333 0.088-0.90933-0.088-0.58667-0.176-0.76267-0.82133-0.11733-0.32267-0.20533-1.0267-0.088-0.73333 0.02933-1.4667 0.11733-0.528 0.14667-0.968 0.02933-0.44 0.11733-0.616 0-0.088 0-0.41067 0-0.352-0.088-0.352-0.11733 0-0.55733 0.44-0.41067 0.41067-0.99733 1.056-0.55733 0.64533-1.1147 1.3493-0.55733 0.704-0.90933 1.2613-0.264 0.32267-0.46933 0.792t-0.29333 0.528q-0.20533 0.23467-0.49867 0.05867-0.264-0.176-0.49867-0.55733-0.088-0.176-0.11733-0.29333-0.02933-0.14667 0-0.38133 0.05867-0.264 0.20533-0.76267 0.176-0.49867 0.46933-1.408 0.32267-0.99733 0.55733-1.7893 0.264-0.82133 0.264-0.82133 0-0.11733-0.44 0.23467-0.44 0.32267-1.0267 0.82133-0.264 0.32267-0.88 0.968-0.616 0.64533-1.3493 1.4667-0.73333 0.82133-1.408 1.7307-0.85067 1.2027-1.2027 1.4667-0.32267 0.264-0.64533-0.14667z"
                style="font-variant-caps:normal;font-variant-east-asian:normal;font-variant-ligatures:normal;font-variant-numeric:normal;font-variation-settings:'wght' 400" />
        </g>
    </g>
</svg>
