<?xml version="1.0" encoding="UTF-8"?>
<svg width="73.493" height="30" version="1.1" viewBox="0 0 19.445 5.3763" xmlns="http://www.w3.org/2000/svg" xmlns:cc="http://creativecommons.org/ns#" xmlns:dc="http://purl.org/dc/elements/1.1/" xmlns:rdf="http://www.w3.org/1999/02/22-rdf-syntax-ns#">
 <metadata>
  <rdf:RDF>
   <cc:Work rdf:about="">
    <dc:format>image/svg+xml</dc:format>
    <dc:type rdf:resource="http://purl.org/dc/dcmitype/StillImage"/>
    <dc:title/>
   </cc:Work>
  </rdf:RDF>
 </metadata>
 <g transform="translate(-121.43 -130.09)">
  <g fill="#222933" stroke-width=".26458" style="font-variant-caps:normal;font-variant-east-asian:normal;font-variant-ligatures:normal;font-variant-numeric:normal" aria-label="home">
   <path d="m121.43 130.09v5.2352h1.0583v-2.032c0-0.45861 0.33867-0.79022 0.74789-0.79022 0.42334 7e-3 0.67734 0.31045 0.67734 0.74789v2.0743h1.0583v-2.2931c0-0.85372-0.54328-1.4605-1.3758-1.4605-0.43745 0-0.86784 0.19755-1.1077 0.55033v-2.032z" style="font-variant-caps:normal;font-variant-east-asian:normal;font-variant-ligatures:normal;font-variant-numeric:normal"/>
   <path d="m127.66 131.57c-1.1853 0-2.0038 0.79022-2.0038 1.9473 0 1.1501 0.81845 1.9473 2.0038 1.9473 1.1924 0 2.0108-0.79728 2.0108-1.9473 0-1.1571-0.81845-1.9473-2.0108-1.9473zm0 2.9633c-0.55033 0-0.93839-0.42333-0.93839-1.016 0-0.59266 0.38806-1.016 0.93839-1.016 0.55739 0 0.94545 0.42334 0.94545 1.016 0 0.59267-0.38806 1.016-0.94545 1.016z" style="font-variant-caps:normal;font-variant-east-asian:normal;font-variant-ligatures:normal;font-variant-numeric:normal"/>
   <path d="m131.47 135.33v-2.0602c0-0.45861 0.26106-0.762 0.66322-0.762 0.39512 0 0.64912 0.30339 0.64912 0.762v2.0602h1.0583v-2.0602c0-0.4445 0.27517-0.762 0.68439-0.762 0.40217 0.0141 0.67028 0.33161 0.67028 0.762v2.0602h1.0583v-2.2719c0-0.86784-0.5715-1.4817-1.3899-1.4817-0.50095 0-0.98073 0.24694-1.2136 0.64205-0.20461-0.39511-0.64206-0.64205-1.1642-0.64205-0.43744 0-0.83255 0.20461-1.0583 0.5715v-0.43039h-1.016v3.6124z" style="font-variant-caps:normal;font-variant-east-asian:normal;font-variant-ligatures:normal;font-variant-numeric:normal"/>
   <path d="m138.03 133.18c0.0917-0.47978 0.41627-0.79728 0.88194-0.79728 0.47978 0 0.83256 0.33866 0.89606 0.79728zm-1.0866 0.31044c0 1.1642 0.81845 1.9756 1.9826 1.9756 0.88195 0 1.644-0.51506 1.8203-1.2206l-0.9525-0.13405c-0.11289 0.3175-0.4445 0.54328-0.83961 0.54328-0.47978 0-0.82551-0.33161-0.91723-0.83961l2.8293 7e-3c0.0141-0.0776 0.0141-0.22578 0.0141-0.3175 0-1.143-0.79022-1.9332-1.9473-1.9332-1.1642 0-1.9897 0.79022-1.9897 1.9191z" style="font-variant-caps:normal;font-variant-east-asian:normal;font-variant-ligatures:normal;font-variant-numeric:normal"/>
  </g>
 </g>
</svg>
