<?xml version="1.0" encoding="UTF-8"?>
<svg width="21.421mm" height="30" version="1.1" viewBox="0 0 21.421 5.3904" xmlns="http://www.w3.org/2000/svg" xmlns:cc="http://creativecommons.org/ns#" xmlns:dc="http://purl.org/dc/elements/1.1/" xmlns:rdf="http://www.w3.org/1999/02/22-rdf-syntax-ns#">
 <metadata>
  <rdf:RDF>
   <cc:Work rdf:about="">
    <dc:format>image/svg+xml</dc:format>
    <dc:type rdf:resource="http://purl.org/dc/dcmitype/StillImage"/>
    <dc:title/>
   </cc:Work>
  </rdf:RDF>
 </metadata>
 <g transform="translate(-93.936 -101.35)">
  <g fill="#222933" stroke-width=".26458" style="font-variant-caps:normal;font-variant-east-asian:normal;font-variant-ligatures:normal;font-variant-numeric:normal" aria-label="works">
   <path d="m96.37 106.59 0.60678-2.3777 0.60678 2.3777h1.3406l1.1007-3.6124h-1.0654l-0.73378 2.5753-0.75494-2.5753h-0.98778l-0.70556 2.5541-0.74083-2.5541h-1.1007l1.0936 3.6124z" style="font-variant-caps:normal;font-variant-east-asian:normal;font-variant-ligatures:normal;font-variant-numeric:normal"/>
   <path d="m102.37 102.84c-1.1853 0-2.0038 0.79022-2.0038 1.9473 0 1.1501 0.81845 1.9473 2.0038 1.9473 1.1924 0 2.0108-0.79728 2.0108-1.9473 0-1.1571-0.81845-1.9473-2.0108-1.9473zm0 2.9633c-0.55033 0-0.93839-0.42333-0.93839-1.016 0-0.59266 0.38806-1.016 0.93839-1.016 0.55739 0 0.94545 0.42334 0.94545 1.016 0 0.59267-0.38806 1.016-0.94545 1.016z" style="font-variant-caps:normal;font-variant-east-asian:normal;font-variant-ligatures:normal;font-variant-numeric:normal"/>
   <path d="m105.13 102.98v3.6124h1.0583v-1.9191c0-0.54327 0.30339-0.92427 0.76201-0.92427 0.15522 0 0.39511 0.0423 0.59266 0.127v-0.93839c-0.14111-0.0564-0.28928-0.0917-0.43039-0.0917-0.39511 0-0.75494 0.23284-0.96661 0.59267v-0.45861z" style="font-variant-caps:normal;font-variant-east-asian:normal;font-variant-ligatures:normal;font-variant-numeric:normal"/>
   <path d="m108.16 106.59h1.0583v-1.5522l1.263 1.5522h1.2912l-1.6157-1.9191 1.5663-1.6933h-1.2841l-1.2206 1.3335v-2.9563h-1.0583z" style="font-variant-caps:normal;font-variant-east-asian:normal;font-variant-ligatures:normal;font-variant-numeric:normal"/>
   <path d="m115.36 105.45c0-0.84667-0.92428-0.99484-1.6581-1.0936-0.40922-0.0635-0.72672-0.13405-0.72672-0.37394 7e-3 -0.23989 0.26811-0.40922 0.59266-0.40922 0.42334 0 0.74084 0.20461 0.74084 0.50094h0.93133c0-0.72672-0.6985-1.2488-1.6651-1.2488-0.88195 0-1.5522 0.508-1.5522 1.2136 0 0.88195 0.67027 1.009 1.4746 1.1077 0.43744 0.0423 0.84667 0.127 0.84667 0.43039 0 0.23989-0.28223 0.42333-0.67028 0.42333-0.45861 0-0.79023-0.254-0.79023-0.61383h-0.89605c-7e-3 0.79022 0.6985 1.3617 1.6722 1.3617 1.0089 0 1.7004-0.54328 1.7004-1.2982z" style="font-variant-caps:normal;font-variant-east-asian:normal;font-variant-ligatures:normal;font-variant-numeric:normal"/>
  </g>
 </g>
</svg>
